<svg role="img" viewBox="0 0 24 24" xmlns="http://www.w3.org/2000/svg"><title>storcli</title><path fill="#CC0000" d="M2 3.5C2 2.672 2.672 2 3.5 2h17c.828 0 1.5.672 1.5 1.5v3c0 .828-.672 1.5-1.5 1.5h-17C2.672 8 2 7.328 2 6.5zm15.5 1a1 1 0 1 0 0-2 1 1 0 0 0 0 2zm-3 0a1 1 0 1 0 0-2 1 1 0 0 0 0 2zM2 10.5C2 9.672 2.672 9 3.5 9h17c.828 0 1.5.672 1.5 1.5v3c0 .828-.672 1.5-1.5 1.5h-17C2.672 15 2 14.328 2 13.5zm15.5 1a1 1 0 1 0 0-2 1 1 0 0 0 0 2zm-3 0a1 1 0 1 0 0-2 1 1 0 0 0 0 2zM2 17.5c0-.828.672-1.5 1.5-1.5h17c.828 0 1.5.672 1.5 1.5v3c0 .828-.672 1.5-1.5 1.5h-17C2.672 22 2 21.328 2 20.5zm15.5 1a1 1 0 1 0 0-2 1 1 0 0 0 0 2zm-3 0a1 1 0 1 0 0-2 1 1 0 0 0 0 2z"/></svg>
